<?xml version="1.0" encoding="UTF-8" standalone="no"?>
<svg
   height="24"
   viewBox="0 -960 960 960"
   width="24"
   version="1.1"
   id="svg1"
   xmlns="http://www.w3.org/2000/svg"
   xmlns:svg="http://www.w3.org/2000/svg">
  <defs
     id="defs1" />
  <path
     d="m 160,-160 q -33,0 -56.5,-23.5 Q 80,-207 80,-240 v -480 q 0,-33 23.5,-56.5 Q 127,-800 160,-800 h 640 q 33,0 56.5,23.5 23.5,23.5 23.5,56.5 v 480 q 0,33 -23.5,56.5 Q 833,-160 800,-160 Z m 0,-80 H 440 V -720 H 160 Z m 360,0 H 800 V -720 H 520 Z m -320,-80 h 200 v -80 H 200 Z m 0,-120 h 200 v -80 H 200 Z m 0,-120 h 200 v -80 H 200 Z m 360,240 h 200 v -80 H 560 Z m 0,-120 h 200 v -80 H 560 Z m 0,-120 h 200 v -80 H 560 Z m -120,320 v -480 z"
     style="fill:#ffffff;fill-opacity:1" />
</svg>
